<svg
        width="35"
        height="35"
        viewBox="0 0 55 55"
        fill="none"
        xmlns="http://www.w3.org/2000/svg"
    >
<!--         <path-->
<!--            fill-rule="evenodd"-->
<!--            clip-rule="evenodd"-->
<!--            d="M15.4611 2.38628C5.68605 6.93828 0.0200521 16.1553 5.20705e-05 27.5353C-0.0279479 43.7083 11.2391 54.9753 27.4681 55.0033C43.6411 55.0313 54.9081 43.7643 54.9361 27.5353C54.9571 15.8253 49.139 6.74328 38.5331 1.92528C32.4991 -0.814718 21.8801 -0.602718 15.4611 2.38628Z"-->
<!--            fill="white"-->
<!--        /> -->
        <path
            fill-rule="evenodd"
            clip-rule="evenodd"
            stroke="#bb0000"
            stroke-width="1"
            d="M21.468 2.98052C16.584 4.97952 14.543 10.0865 13.451 23.0355C12.639 32.6675 11.481 35.5805 7.86596 37.0775C5.54196 38.0405 5.17096 38.5755 6.07396 39.6635C8.03196 42.0225 13.775 41.3475 16.469 38.4405C18.982 35.7285 19.472 33.3845 20.424 19.5355C20.802 14.0375 21.707 10.0495 23.318 6.78552C25.645 2.06952 25.322 1.40352 21.468 2.98052ZM29.718 4.11552C26.356 6.07352 24.751 11.1785 23.815 22.8865C22.581 38.3355 20.427 42.4975 12.677 44.4065C9.16195 45.2725 10.101 47.0355 14.077 47.0355C20.618 47.0355 25.177 42.8375 31.94 30.5855C37.352 20.7825 39.987 18.6975 46.218 19.2905C48.83 19.5385 50.968 19.3355 50.968 18.8395C50.968 16.7245 47.808 12.1245 43.98 8.66552C38.061 3.31852 33.555 1.88052 29.718 4.11552ZM8.98096 10.2195C3.31396 16.2205 -0.147044 30.0355 3.30096 32.8975C5.92196 35.0725 8.39996 33.8575 9.15896 30.0245C10.069 25.4275 11.848 8.62352 11.467 8.21952C11.303 8.04552 10.185 8.94552 8.98096 10.2195ZM41.212 23.5775C40.001 24.4255 36.867 28.9685 34.247 33.6725C29.486 42.2235 22.413 50.0355 19.431 50.0355C18.562 50.0355 18.128 50.4855 18.468 51.0355C19.437 52.6035 25.267 52.2065 27.995 50.3865C29.355 49.4795 32.043 47.2555 33.968 45.4455C38.622 41.0695 42.237 39.7455 45.489 41.2265C48.639 42.6625 50.318 40.7425 52.016 33.7675C53.577 27.3515 52.72 24.4935 48.825 23.1355C44.686 21.6925 43.832 21.7425 41.212 23.5775ZM36.679 48.1185C32.595 52.0785 32.553 52.1835 35.288 51.5825C38.965 50.7745 44.94 46.8825 44.956 45.2855C44.981 42.7215 40.753 44.1685 36.679 48.1185Z"
            fill="currentColor"
        />
    </svg>
